<svg width="100%" height="100%" viewBox="0 0 32 32" version="1.1" xmlns="http://www.w3.org/2000/svg" xmlns:xlink="http://www.w3.org/1999/xlink" xml:space="preserve" xmlns:serif="http://www.serif.com/" style="fill-rule:evenodd;clip-rule:evenodd;stroke-linejoin:round;stroke-miterlimit:1.41421;"><path id="T" d="M18,12l12,-6l0,4l-4,2l0,11l-4,2l0,-11l-4,2l0,-4Z" style="fill:#020202;"/><path id="I-body" d="M16,13l2,-1l0,15l-2,1l-2,-1l0,-15l2,1Z" style="fill:#020202;"/><path id="I-cap" d="M10,6l6,3l6,-3l-6,-3l-6,3" style="fill:#020202;"/><path id="K" d="M2,6l0,15l4,2l0,-8l4,10l4,2l-4,-12l4,-3l-4,-2l-4,3l0,-5" style="fill:#020202;"/></svg>